<?xml version="1.0" encoding="UTF-8" standalone="no"?>
<!DOCTYPE svg PUBLIC "-//W3C//DTD SVG 1.1//EN"
 "http://www.w3.org/Graphics/SVG/1.1/DTD/svg11.dtd">
<!-- Generated by graphviz version 2.40.1 (20161225.0304)
 -->
<!-- Title: G Pages: 1 -->
<svg width="556pt" height="327pt"
 viewBox="0.00 0.00 556.16 327.00" xmlns="http://www.w3.org/2000/svg" xmlns:xlink="http://www.w3.org/1999/xlink">
<g id="graph0" class="graph" transform="scale(1 1) rotate(0) translate(4 323)">
<title>G</title>
<polygon fill="#ffffff" stroke="transparent" points="-4,4 -4,-323 552.1595,-323 552.1595,4 -4,4"/>
<g id="clust1" class="cluster">
<title>cluster_Global</title>
<path fill="none" stroke="#c0c0c0" d="M323.1326,-8C323.1326,-8 528.1595,-8 528.1595,-8 534.1595,-8 540.1595,-14 540.1595,-20 540.1595,-20 540.1595,-299 540.1595,-299 540.1595,-305 534.1595,-311 528.1595,-311 528.1595,-311 323.1326,-311 323.1326,-311 317.1326,-311 311.1326,-305 311.1326,-299 311.1326,-299 311.1326,-20 311.1326,-20 311.1326,-14 317.1326,-8 323.1326,-8"/>
<text text-anchor="middle" x="425.646" y="-298.2" font-family="Times,serif" font-size="11.00" fill="#c0c0c0">Global</text>
</g>
<g id="clust2" class="cluster">
<title>cluster_\Anax</title>
<path fill="none" stroke="#c0c0c0" d="M331.1326,-16C331.1326,-16 520.1595,-16 520.1595,-16 526.1595,-16 532.1595,-22 532.1595,-28 532.1595,-28 532.1595,-272 532.1595,-272 532.1595,-278 526.1595,-284 520.1595,-284 520.1595,-284 331.1326,-284 331.1326,-284 325.1326,-284 319.1326,-278 319.1326,-272 319.1326,-272 319.1326,-28 319.1326,-28 319.1326,-22 325.1326,-16 331.1326,-16"/>
<text text-anchor="middle" x="425.646" y="-271.2" font-family="Times,serif" font-size="11.00" fill="#c0c0c0">Anax</text>
</g>
<g id="clust3" class="cluster">
<title>cluster_\Anax\Page</title>
<path fill="none" stroke="#c0c0c0" d="M339.1326,-24C339.1326,-24 512.1595,-24 512.1595,-24 518.1595,-24 524.1595,-30 524.1595,-36 524.1595,-36 524.1595,-245 524.1595,-245 524.1595,-251 518.1595,-257 512.1595,-257 512.1595,-257 339.1326,-257 339.1326,-257 333.1326,-257 327.1326,-251 327.1326,-245 327.1326,-245 327.1326,-36 327.1326,-36 327.1326,-30 333.1326,-24 339.1326,-24"/>
<text text-anchor="middle" x="425.646" y="-244.2" font-family="Times,serif" font-size="11.00" fill="#c0c0c0">Page</text>
</g>
<!-- \\Anax\\Page\\FlatFileContentController -->
<g id="node1" class="node">
<title>\\Anax\\Page\\FlatFileContentController</title>
<polygon fill="none" stroke="#000000" points="516.1729,-230 335.1192,-230 335.1192,-194 516.1729,-194 516.1729,-230"/>
<text text-anchor="middle" x="425.646" y="-208.7" font-family="Courier,monospace" font-size="11.00" fill="#000000">FlatFileContentController</text>
</g>
<!-- \\Anax\\DI\\InjectionAwareInterface -->
<g id="node5" class="node">
<title>\\Anax\\DI\\InjectionAwareInterface</title>
<ellipse fill="none" stroke="#000000" cx="131.5663" cy="-131" rx="131.6326" ry="18"/>
<text text-anchor="middle" x="131.5663" y="-126.8" font-family="Times,serif" font-size="14.00" fill="#c0c0c0">\Anax\DI\InjectionAwareInterface</text>
</g>
<!-- \\Anax\\Page\\FlatFileContentController&#45;&gt;\\Anax\\DI\\InjectionAwareInterface -->
<g id="edge1" class="edge">
<title>\\Anax\\Page\\FlatFileContentController&#45;&gt;\\Anax\\DI\\InjectionAwareInterface</title>
<path fill="none" stroke="#000000" stroke-dasharray="1,5" d="M346.331,-193.9581C334.5027,-191.0769 322.4772,-188.0402 311.1326,-185 271.7812,-174.4543 227.9916,-161.3144 193.5071,-150.6368"/>
<polygon fill="none" stroke="#000000" points="194.1685,-147.1773 183.5802,-147.5517 192.0909,-153.8619 194.1685,-147.1773"/>
</g>
<!-- \\Anax\\Page\\ErrorController -->
<g id="node2" class="node">
<title>\\Anax\\Page\\ErrorController</title>
<polygon fill="none" stroke="#000000" points="483.1621,-176 368.1299,-176 368.1299,-140 483.1621,-140 483.1621,-176"/>
<text text-anchor="middle" x="425.646" y="-154.7" font-family="Courier,monospace" font-size="11.00" fill="#000000">ErrorController</text>
</g>
<!-- \\Anax\\Page\\ErrorController&#45;&gt;\\Anax\\DI\\InjectionAwareInterface -->
<g id="edge2" class="edge">
<title>\\Anax\\Page\\ErrorController&#45;&gt;\\Anax\\DI\\InjectionAwareInterface</title>
<path fill="none" stroke="#000000" stroke-dasharray="1,5" d="M367.8962,-152.6979C334.588,-149.6398 291.4417,-145.6785 251.1478,-141.979"/>
<polygon fill="none" stroke="#000000" points="251.2509,-138.4738 240.9728,-141.0448 250.6109,-145.4445 251.2509,-138.4738"/>
</g>
<!-- \\Anax\\Page\\Page -->
<g id="node3" class="node">
<title>\\Anax\\Page\\Page</title>
<polygon fill="none" stroke="#000000" points="452.646,-122 398.646,-122 398.646,-86 452.646,-86 452.646,-122"/>
<text text-anchor="middle" x="425.646" y="-100.7" font-family="Courier,monospace" font-size="11.00" fill="#000000">Page</text>
</g>
<!-- \\Anax\\Page\\Page&#45;&gt;\\Anax\\DI\\InjectionAwareInterface -->
<g id="edge3" class="edge">
<title>\\Anax\\Page\\Page&#45;&gt;\\Anax\\DI\\InjectionAwareInterface</title>
<path fill="none" stroke="#000000" stroke-dasharray="1,5" d="M398.5068,-106.4917C364.908,-109.5765 305.4656,-115.034 251.1899,-120.0171"/>
<polygon fill="none" stroke="#000000" points="250.7611,-116.5417 241.123,-120.9414 251.4011,-123.5124 250.7611,-116.5417"/>
</g>
<!-- \\Anax\\Page\\DebugController -->
<g id="node4" class="node">
<title>\\Anax\\Page\\DebugController</title>
<polygon fill="none" stroke="#000000" points="483.1621,-68 368.1299,-68 368.1299,-32 483.1621,-32 483.1621,-68"/>
<text text-anchor="middle" x="425.646" y="-46.7" font-family="Courier,monospace" font-size="11.00" fill="#000000">DebugController</text>
</g>
<!-- \\Anax\\Page\\DebugController&#45;&gt;\\Anax\\DI\\InjectionAwareInterface -->
<g id="edge4" class="edge">
<title>\\Anax\\Page\\DebugController&#45;&gt;\\Anax\\DI\\InjectionAwareInterface</title>
<path fill="none" stroke="#000000" stroke-dasharray="1,5" d="M368.1,-62.85C349.8277,-67.1222 329.5799,-72.0563 311.1326,-77 271.7812,-87.5457 227.9916,-100.6856 193.5071,-111.3632"/>
<polygon fill="none" stroke="#000000" points="192.0909,-108.1381 183.5802,-114.4483 194.1685,-114.8227 192.0909,-108.1381"/>
</g>
</g>
</svg>
