<?xml version="1.0" encoding="UTF-8" standalone="no"?>
<!DOCTYPE svg PUBLIC "-//W3C//DTD SVG 1.1//EN"
 "http://www.w3.org/Graphics/SVG/1.1/DTD/svg11.dtd">
<!-- Generated by graphviz version 2.40.1 (20161225.0304)
 -->
<!-- Title: G Pages: 1 -->
<svg width="571pt" height="603pt"
 viewBox="0.00 0.00 570.62 603.00" xmlns="http://www.w3.org/2000/svg" xmlns:xlink="http://www.w3.org/1999/xlink">
<g id="graph0" class="graph" transform="scale(1 1) rotate(0) translate(4 599)">
<title>G</title>
<polygon fill="#ffffff" stroke="transparent" points="-4,4 -4,-599 566.6165,-599 566.6165,4 -4,4"/>
<g id="clust1" class="cluster">
<title>cluster_Global</title>
<path fill="none" stroke="#c0c0c0" d="M337.5896,-8C337.5896,-8 542.6165,-8 542.6165,-8 548.6165,-8 554.6165,-14 554.6165,-20 554.6165,-20 554.6165,-575 554.6165,-575 554.6165,-581 548.6165,-587 542.6165,-587 542.6165,-587 337.5896,-587 337.5896,-587 331.5896,-587 325.5896,-581 325.5896,-575 325.5896,-575 325.5896,-20 325.5896,-20 325.5896,-14 331.5896,-8 337.5896,-8"/>
<text text-anchor="middle" x="440.103" y="-574.2" font-family="Times,serif" font-size="11.00" fill="#c0c0c0">Global</text>
</g>
<g id="clust2" class="cluster">
<title>cluster_\Anax</title>
<path fill="none" stroke="#c0c0c0" d="M345.5896,-238C345.5896,-238 534.6165,-238 534.6165,-238 540.6165,-238 546.6165,-244 546.6165,-250 546.6165,-250 546.6165,-548 546.6165,-548 546.6165,-554 540.6165,-560 534.6165,-560 534.6165,-560 345.5896,-560 345.5896,-560 339.5896,-560 333.5896,-554 333.5896,-548 333.5896,-548 333.5896,-250 333.5896,-250 333.5896,-244 339.5896,-238 345.5896,-238"/>
<text text-anchor="middle" x="440.103" y="-547.2" font-family="Times,serif" font-size="11.00" fill="#c0c0c0">Anax</text>
</g>
<g id="clust3" class="cluster">
<title>cluster_\Anax\Page</title>
<path fill="none" stroke="#c0c0c0" d="M353.5896,-246C353.5896,-246 526.6165,-246 526.6165,-246 532.6165,-246 538.6165,-252 538.6165,-258 538.6165,-258 538.6165,-521 538.6165,-521 538.6165,-527 532.6165,-533 526.6165,-533 526.6165,-533 353.5896,-533 353.5896,-533 347.5896,-533 341.5896,-527 341.5896,-521 341.5896,-521 341.5896,-258 341.5896,-258 341.5896,-252 347.5896,-246 353.5896,-246"/>
<text text-anchor="middle" x="440.103" y="-520.2" font-family="Times,serif" font-size="11.00" fill="#c0c0c0">Page</text>
</g>
<g id="clust4" class="cluster">
<title>cluster_\Aurora</title>
<path fill="none" stroke="#c0c0c0" d="M378.595,-16C378.595,-16 501.6111,-16 501.6111,-16 507.6111,-16 513.6111,-22 513.6111,-28 513.6111,-28 513.6111,-218 513.6111,-218 513.6111,-224 507.6111,-230 501.6111,-230 501.6111,-230 378.595,-230 378.595,-230 372.595,-230 366.595,-224 366.595,-218 366.595,-218 366.595,-28 366.595,-28 366.595,-22 372.595,-16 378.595,-16"/>
<text text-anchor="middle" x="440.103" y="-217.2" font-family="Times,serif" font-size="11.00" fill="#c0c0c0">Aurora</text>
</g>
<g id="clust5" class="cluster">
<title>cluster_\Aurora\Guess</title>
<path fill="none" stroke="#c0c0c0" d="M386.595,-24C386.595,-24 493.6111,-24 493.6111,-24 499.6111,-24 505.6111,-30 505.6111,-36 505.6111,-36 505.6111,-191 505.6111,-191 505.6111,-197 499.6111,-203 493.6111,-203 493.6111,-203 386.595,-203 386.595,-203 380.595,-203 374.595,-197 374.595,-191 374.595,-191 374.595,-36 374.595,-36 374.595,-30 380.595,-24 386.595,-24"/>
<text text-anchor="middle" x="440.103" y="-190.2" font-family="Times,serif" font-size="11.00" fill="#c0c0c0">Guess</text>
</g>
<!-- \\Anax\\Page\\FlatFileContentController -->
<g id="node1" class="node">
<title>\\Anax\\Page\\FlatFileContentController</title>
<polygon fill="none" stroke="#000000" points="530.6299,-344 349.5762,-344 349.5762,-308 530.6299,-308 530.6299,-344"/>
<text text-anchor="middle" x="440.103" y="-322.7" font-family="Courier,monospace" font-size="11.00" fill="#000000">FlatFileContentController</text>
</g>
<!-- \\Anax\\DI\\InjectionAwareInterface -->
<g id="node9" class="node">
<title>\\Anax\\DI\\InjectionAwareInterface</title>
<ellipse fill="none" stroke="#000000" cx="138.7948" cy="-353" rx="131.6326" ry="18"/>
<text text-anchor="middle" x="138.7948" y="-348.8" font-family="Times,serif" font-size="14.00" fill="#c0c0c0">\Anax\DI\InjectionAwareInterface</text>
</g>
<!-- \\Anax\\Page\\FlatFileContentController&#45;&gt;\\Anax\\DI\\InjectionAwareInterface -->
<g id="edge1" class="edge">
<title>\\Anax\\Page\\FlatFileContentController&#45;&gt;\\Anax\\DI\\InjectionAwareInterface</title>
<path fill="none" stroke="#000000" stroke-dasharray="1,5" d="M349.292,-334.1375C320.9585,-336.6765 289.2528,-339.5176 259.2188,-342.2089"/>
<polygon fill="none" stroke="#000000" points="258.7525,-338.7366 249.1048,-343.1152 259.3773,-345.7086 258.7525,-338.7366"/>
</g>
<!-- \\Anax\\Page\\PageRender -->
<g id="node2" class="node">
<title>\\Anax\\Page\\PageRender</title>
<polygon fill="none" stroke="#000000" points="481.1138,-290 399.0923,-290 399.0923,-254 481.1138,-254 481.1138,-290"/>
<text text-anchor="middle" x="440.103" y="-268.7" font-family="Courier,monospace" font-size="11.00" fill="#000000">PageRender</text>
</g>
<!-- \\Anax\\Page\\PageRender&#45;&gt;\\Anax\\DI\\InjectionAwareInterface -->
<g id="edge3" class="edge">
<title>\\Anax\\Page\\PageRender&#45;&gt;\\Anax\\DI\\InjectionAwareInterface</title>
<path fill="none" stroke="#000000" stroke-dasharray="1,5" d="M398.9041,-281.191C377.0538,-286.1973 349.7929,-292.6525 325.5896,-299 284.5498,-309.7631 238.7833,-322.9737 202.8232,-333.6343"/>
<polygon fill="none" stroke="#000000" points="201.5404,-330.3642 192.9528,-336.5693 203.5356,-337.0739 201.5404,-330.3642"/>
</g>
<!-- \\Anax\\Page\\PageRenderInterface -->
<g id="node10" class="node">
<title>\\Anax\\Page\\PageRenderInterface</title>
<ellipse fill="none" stroke="#000000" cx="138.7948" cy="-272" rx="127.93" ry="18"/>
<text text-anchor="middle" x="138.7948" y="-267.8" font-family="Times,serif" font-size="14.00" fill="#c0c0c0">\Anax\Page\PageRenderInterface</text>
</g>
<!-- \\Anax\\Page\\PageRender&#45;&gt;\\Anax\\Page\\PageRenderInterface -->
<g id="edge2" class="edge">
<title>\\Anax\\Page\\PageRender&#45;&gt;\\Anax\\Page\\PageRenderInterface</title>
<path fill="none" stroke="#000000" stroke-dasharray="1,5" d="M398.8392,-272C367.0729,-272 321.2286,-272 276.8522,-272"/>
<polygon fill="none" stroke="#000000" points="276.8156,-268.5001 266.8155,-272 276.8155,-275.5001 276.8156,-268.5001"/>
</g>
<!-- \\Anax\\Page\\ErrorController -->
<g id="node3" class="node">
<title>\\Anax\\Page\\ErrorController</title>
<polygon fill="none" stroke="#000000" points="497.6191,-506 382.5869,-506 382.5869,-470 497.6191,-470 497.6191,-506"/>
<text text-anchor="middle" x="440.103" y="-484.7" font-family="Courier,monospace" font-size="11.00" fill="#000000">ErrorController</text>
</g>
<!-- \\Anax\\Page\\ErrorController&#45;&gt;\\Anax\\DI\\InjectionAwareInterface -->
<g id="edge4" class="edge">
<title>\\Anax\\Page\\ErrorController&#45;&gt;\\Anax\\DI\\InjectionAwareInterface</title>
<path fill="none" stroke="#000000" stroke-dasharray="1,5" d="M382.3021,-477.8242C363.8298,-473.6648 343.5303,-468.1218 325.5896,-461 268.9385,-438.5117 208.8408,-400.9809 172.5634,-376.6139"/>
<polygon fill="none" stroke="#000000" points="174.1112,-373.4347 163.8701,-370.7197 170.1828,-379.2286 174.1112,-373.4347"/>
</g>
<!-- \\Anax\\Page\\Page -->
<g id="node4" class="node">
<title>\\Anax\\Page\\Page</title>
<polygon fill="none" stroke="#000000" points="467.103,-452 413.103,-452 413.103,-416 467.103,-416 467.103,-452"/>
<text text-anchor="middle" x="440.103" y="-430.7" font-family="Courier,monospace" font-size="11.00" fill="#000000">Page</text>
</g>
<!-- \\Anax\\Page\\Page&#45;&gt;\\Anax\\DI\\InjectionAwareInterface -->
<g id="edge5" class="edge">
<title>\\Anax\\Page\\Page&#45;&gt;\\Anax\\DI\\InjectionAwareInterface</title>
<path fill="none" stroke="#000000" stroke-dasharray="1,5" d="M412.7059,-427.9439C389.4475,-422.7063 355.2262,-414.7725 325.5896,-407 284.5498,-396.2369 238.7833,-383.0263 202.8232,-372.3657"/>
<polygon fill="none" stroke="#000000" points="203.5356,-368.9261 192.9528,-369.4307 201.5404,-375.6358 203.5356,-368.9261"/>
</g>
<!-- \\Anax\\Page\\DebugController -->
<g id="node5" class="node">
<title>\\Anax\\Page\\DebugController</title>
<polygon fill="none" stroke="#000000" points="497.6191,-398 382.5869,-398 382.5869,-362 497.6191,-362 497.6191,-398"/>
<text text-anchor="middle" x="440.103" y="-376.7" font-family="Courier,monospace" font-size="11.00" fill="#000000">DebugController</text>
</g>
<!-- \\Anax\\Page\\DebugController&#45;&gt;\\Anax\\DI\\InjectionAwareInterface -->
<g id="edge6" class="edge">
<title>\\Anax\\Page\\DebugController&#45;&gt;\\Anax\\DI\\InjectionAwareInterface</title>
<path fill="none" stroke="#000000" stroke-dasharray="1,5" d="M382.3643,-374.8261C347.482,-371.7003 301.6965,-367.5975 259.2471,-363.7936"/>
<polygon fill="none" stroke="#000000" points="259.3819,-360.2918 249.1094,-362.8852 258.7571,-367.2638 259.3819,-360.2918"/>
</g>
<!-- \\Aurora\\Guess\\GuessController -->
<g id="node6" class="node">
<title>\\Aurora\\Guess\\GuessController</title>
<polygon fill="none" stroke="#000000" points="497.6191,-176 382.5869,-176 382.5869,-140 497.6191,-140 497.6191,-176"/>
<text text-anchor="middle" x="440.103" y="-154.7" font-family="Courier,monospace" font-size="11.00" fill="#000000">GuessController</text>
</g>
<!-- \\Aurora\\Guess\\GuessController&#45;&gt;\\Anax\\DI\\InjectionAwareInterface -->
<g id="edge8" class="edge">
<title>\\Aurora\\Guess\\GuessController&#45;&gt;\\Anax\\DI\\InjectionAwareInterface</title>
<path fill="none" stroke="#000000" stroke-dasharray="1,5" d="M411.3564,-176.2857C387.2748,-192.2417 352.6026,-216.7391 325.5896,-242 301.3993,-264.6212 304.526,-279.7303 277.5896,-299 256.8893,-313.8086 231.5867,-325.213 208.2818,-333.6416"/>
<polygon fill="none" stroke="#000000" points="207.0687,-330.3579 198.7801,-336.9571 209.375,-336.9671 207.0687,-330.3579"/>
</g>
<!-- \\Anax\\Configure\\ConfigureInterface -->
<g id="node11" class="node">
<title>\\Anax\\Configure\\ConfigureInterface</title>
<ellipse fill="none" stroke="#000000" cx="138.7948" cy="-158" rx="138.5899" ry="18"/>
<text text-anchor="middle" x="138.7948" y="-153.8" font-family="Times,serif" font-size="14.00" fill="#c0c0c0">\Anax\Configure\ConfigureInterface</text>
</g>
<!-- \\Aurora\\Guess\\GuessController&#45;&gt;\\Anax\\Configure\\ConfigureInterface -->
<g id="edge7" class="edge">
<title>\\Aurora\\Guess\\GuessController&#45;&gt;\\Anax\\Configure\\ConfigureInterface</title>
<path fill="none" stroke="#000000" stroke-dasharray="1,5" d="M382.3643,-158C355.3414,-158 321.7751,-158 288.2855,-158"/>
<polygon fill="none" stroke="#000000" points="287.902,-154.5001 277.9019,-158 287.9019,-161.5001 287.902,-154.5001"/>
</g>
<!-- \\Aurora\\Guess\\GuessOutOfRange -->
<g id="node7" class="node">
<title>\\Aurora\\Guess\\GuessOutOfRange</title>
<polygon fill="none" stroke="#000000" points="497.6191,-122 382.5869,-122 382.5869,-86 497.6191,-86 497.6191,-122"/>
<text text-anchor="middle" x="440.103" y="-100.7" font-family="Courier,monospace" font-size="11.00" fill="#000000">GuessOutOfRange</text>
</g>
<!-- \\Aurora\\Guess\\Exception -->
<g id="node12" class="node">
<title>\\Aurora\\Guess\\Exception</title>
<ellipse fill="none" stroke="#000000" cx="138.7948" cy="-104" rx="99.9847" ry="18"/>
<text text-anchor="middle" x="138.7948" y="-99.8" font-family="Times,serif" font-size="14.00" fill="#c0c0c0">\Aurora\Guess\Exception</text>
</g>
<!-- \\Aurora\\Guess\\GuessOutOfRange&#45;&gt;\\Aurora\\Guess\\Exception -->
<g id="edge9" class="edge">
<title>\\Aurora\\Guess\\GuessOutOfRange&#45;&gt;\\Aurora\\Guess\\Exception</title>
<path fill="none" stroke="#000000" d="M382.3643,-104C344.7136,-104 294.3603,-104 249.2102,-104"/>
<polygon fill="none" stroke="#000000" points="249.0631,-100.5001 239.0631,-104 249.0631,-107.5001 249.0631,-100.5001"/>
</g>
<!-- \\Aurora\\Guess\\Guess -->
<g id="node8" class="node">
<title>\\Aurora\\Guess\\Guess</title>
<polygon fill="none" stroke="#000000" points="467.103,-68 413.103,-68 413.103,-32 467.103,-32 467.103,-68"/>
<text text-anchor="middle" x="440.103" y="-46.7" font-family="Courier,monospace" font-size="11.00" fill="#000000">Guess</text>
</g>
</g>
</svg>
